<?xml version="1.0" encoding="UTF-8"?>
<svg width="600" height="400" viewBox="0 0 600 400" xmlns="http://www.w3.org/2000/svg">
  <!-- Background Elements -->
  <rect x="0" y="0" width="600" height="400" fill="#f8f9ff" opacity="0.5"/>
  <circle cx="50" cy="50" r="40" fill="#7B68EE" opacity="0.1"/>
  <circle cx="550" cy="350" r="40" fill="#7B68EE" opacity="0.1"/>
  
  <!-- Robot Character -->
  <g transform="translate(250, 100)">
    <!-- Robot Head -->
    <rect x="25" y="0" width="50" height="60" rx="10" fill="#7B68EE"/>
    <circle cx="40" cy="20" r="5" fill="white"/>
    <circle cx="60" cy="20" r="5" fill="white"/>
    <rect x="35" y="35" width="30" height="5" rx="2" fill="white"/>
    
    <!-- Robot Body -->
    <rect x="15" y="70" width="70" height="80" rx="5" fill="#7B68EE"/>
    <rect x="35" y="80" width="30" height="20" rx="2" fill="#f8f9ff"/>
    
    <!-- Robot Arms -->
    <rect x="0" y="80" width="10" height="40" rx="5" fill="#7B68EE"/>
    <rect x="90" y="80" width="10" height="40" rx="5" fill="#7B68EE"/>
  </g>
  
  <!-- Chat Bubbles -->
  <g transform="translate(150, 200)">
    <!-- Left Bubble -->
    <path d="M0 0 h100 a10 10 0 0 1 10 10 v30 a10 10 0 0 1 -10 10 h-80 l-20 20 v-70 z" fill="#7B68EE" opacity="0.8"/>
    <!-- Right Bubble -->
    <path d="M150 50 h100 a10 10 0 0 1 10 10 v30 a10 10 0 0 1 -10 10 h-80 l-20 20 v-70 z" fill="#7B68EE" opacity="0.6"/>
  </g>
  
  <!-- Automation Gears -->
  <g transform="translate(400, 150)">
    <path d="M50 0 A50 50 0 1 1 49.99 0" fill="none" stroke="#7B68EE" stroke-width="8"/>
    <circle cx="50" cy="50" r="15" fill="#7B68EE"/>
    <g transform="rotate(45 50 50)">
      <rect x="45" y="0" width="10" height="20" fill="#7B68EE"/>
      <rect x="45" y="80" width="10" height="20" fill="#7B68EE"/>
      <rect x="0" y="45" width="20" height="10" fill="#7B68EE"/>
      <rect x="80" y="45" width="20" height="10" fill="#7B68EE"/>
    </g>
  </g>
</svg> 