<?xml version="1.0" encoding="UTF-8"?>
<svg width="600" height="400" viewBox="0 0 600 400" xmlns="http://www.w3.org/2000/svg">
  <!-- Background Elements -->
  <rect x="0" y="0" width="600" height="400" fill="#f8f9fa" opacity="0.5"/>
  <circle cx="500" cy="100" r="50" fill="#25D366" opacity="0.1"/>
  <circle cx="100" cy="300" r="70" fill="#25D366" opacity="0.1"/>
  
  <!-- WhatsApp Business API Logo -->
  <g transform="translate(250, 150)">
    <circle cx="50" cy="50" r="45" fill="#25D366"/>
    <path d="M50 20c-16.5 0-30 13.5-30 30 0 6.6 2.1 12.6 5.7 17.4l-3.7 11.1 11.4-3.7c4.5 3 9.9 4.8 15.6 4.8 16.5 0 30-13.5 30-30s-13.5-30-30-30zm0 55c-5.4 0-10.5-1.6-14.7-4.4l-10.3 3.3 3.4-10.1c-3.2-4.5-5.1-9.9-5.1-15.8 0-13.8 11.2-25 25-25s25 11.2 25 25-11.2 25-25 25z" fill="white"/>
  </g>

  <!-- API Elements -->
  <g transform="translate(150, 100)">
    <rect x="0" y="0" width="80" height="30" rx="5" fill="#075E54"/>
    <text x="40" y="20" fill="white" text-anchor="middle" font-family="Arial" font-size="12">API</text>
  </g>
  
  <!-- Connection Lines -->
  <g stroke="#25D366" stroke-width="2" fill="none">
    <path d="M230 115 Q 270 115 300 150"/>
    <path d="M370 200 Q 400 200 430 180"/>
    <path d="M370 200 Q 400 200 430 220"/>
  </g>

  <!-- Verification Badge -->
  <g transform="translate(420, 170)">
    <circle cx="15" cy="15" r="15" fill="#25D366"/>
    <path d="M10 15 l5 5 l8-8" stroke="white" stroke-width="2" fill="none"/>
  </g>
</svg> 