<svg width="600" height="400" viewBox="0 0 600 400" xmlns="http://www.w3.org/2000/svg">
  <style>
    .st0{fill:#00bc60;}
    .st1{fill:#e6f5ec;}
    .st2{fill:#FFFFFF;}
    .st3{fill:#4CAF50;}
    .st4{fill:#2C3E50;}
    .st5{fill:#F5F5F5;}
    .gold{fill:#FFD700;}
  </style>
  
  <!-- Background shapes -->
  <circle class="st1" cx="300" cy="200" r="150" opacity="0.2" />
  
  <!-- Growth Chart -->
  <rect class="st2" x="120" y="100" width="360" height="220" rx="10" stroke="#00bc60" stroke-width="3" />
  
  <!-- Chart grid lines -->
  <line x1="150" y1="280" x2="450" y2="280" stroke="#e6f5ec" stroke-width="2" />
  <line x1="150" y1="230" x2="450" y2="230" stroke="#e6f5ec" stroke-width="1" />
  <line x1="150" y1="180" x2="450" y2="180" stroke="#e6f5ec" stroke-width="1" />
  <line x1="150" y1="130" x2="450" y2="130" stroke="#e6f5ec" stroke-width="1" />
  
  <!-- Growth line -->
  <path d="M150,250 L210,240 L270,220 L330,180 L390,130 L450,120" 
        fill="none" stroke="#00bc60" stroke-width="4" stroke-linecap="round" stroke-linejoin="round" />
  
  <!-- Data points -->
  <circle cx="150" cy="250" r="8" class="st0" />
  <circle cx="210" cy="240" r="8" class="st0" />
  <circle cx="270" cy="220" r="8" class="st0" />
  <circle cx="330" cy="180" r="8" class="st0" />
  <circle cx="390" cy="130" r="8" class="st0" />
  <circle cx="450" cy="120" r="8" class="st0" />
  
  <!-- Trophy icon -->
  <g transform="translate(300, 320)">
    <!-- Trophy base -->
    <rect x="-15" y="20" width="30" height="10" rx="2" class="gold" />
    
    <!-- Trophy stem -->
    <rect x="-5" y="10" width="10" height="15" class="gold" />
    
    <!-- Trophy cup -->
    <path d="M0,-20 L-20,10 L20,10 Z" class="gold" />
    
    <!-- Trophy handles -->
    <path d="M-20,0 C-30,-5 -30,-15 -20,-20" fill="none" stroke="#FFD700" stroke-width="5" />
    <path d="M20,0 C30,-5 30,-15 20,-20" fill="none" stroke="#FFD700" stroke-width="5" />
  </g>
  
  <!-- Success stars -->
  <g class="gold">
    <path d="M520,80 L525,95 L540,95 L530,105 L535,120 L520,110 L505,120 L510,105 L500,95 L515,95 Z" />
    <path d="M470,140 L473,150 L485,150 L475,155 L480,165 L470,160 L460,165 L465,155 L455,150 L467,150 Z" />
    <path d="M550,170 L555,185 L570,185 L560,195 L565,210 L550,200 L535,210 L540,195 L530,185 L545,185 Z" />
    <path d="M480,230 L483,240 L495,240 L485,245 L490,255 L480,250 L470,255 L475,245 L465,240 L477,240 Z" />
  </g>
  
  <!-- Decorative elements -->
  <circle class="st0" cx="100" cy="350" r="15" opacity="0.7" />
  <circle class="st0" cx="500" cy="50" r="20" opacity="0.7" />
  <rect class="st0" x="70" y="80" width="30" height="30" rx="5" transform="rotate(30 70 80)" opacity="0.5" />
</svg> 